<?xml version="1.0" encoding="utf-8"?>
<svg viewBox="165.555 147.491 214.817 55.854" xmlns="http://www.w3.org/2000/svg">
  <g transform="matrix(1.72706, 0, 0, -1.72706, 0.973272, 1462.405179)" id="g9107" style="">
    <g transform="translate(148.6736,735.7597)" id="g20">
      <path id="path22" style="fill:#9A1032;fill-opacity:1;fill-rule:nonzero;stroke:none" d="m 0,0 c -0.765,0 -1.092,1.02 -1.092,3.827 0,1.457 0.709,1.821 2.731,1.821 0.531,0 0.955,-0.004 1.362,-0.011 C 2.356,3.652 1.491,0 0,0 M -4.1,1.914 C -4.1,1.171 -4.029,0.537 -3.9,0 h -10.693 c -1.422,0 -2.331,0.329 -2.331,1.641 v 3.643 h 3.368 c 0.275,0.819 0.456,1.568 0.547,2.367 h -3.914 c 0.016,1.124 0.098,2.128 0.18,3.28 -1.275,-0.455 -2.276,-0.983 -3.097,-1.895 V 7.651 h -1.731 c -0.145,-0.984 -0.145,-1.729 -0.181,-2.367 h 1.912 V 1.458 c 0,-2.678 1.622,-3.826 3.844,-3.826 h 14.538 c 1.781,0 3.149,1.46 4.464,4.764 V -2.368 H 5.92 V 7.651 C 4.609,7.761 3.406,7.835 2.095,7.835 -1.512,7.835 -4.1,6.34 -4.1,1.914 m 15.304,1.111 v 0.983 c 0,1.276 -0.092,2.369 -0.273,3.643 H 8.107 C 8.198,6.377 8.289,5.284 8.289,4.008 v -6.376 h 2.915 c 0,3.572 1.147,7.634 4.189,7.196 0,0.638 -0.091,2.096 -0.272,3.007 C 12.9,7.642 11.812,5.685 11.204,3.025 M -28.949,0 c -0.765,0 -1.093,1.02 -1.093,3.827 0,1.457 0.711,1.821 2.732,1.821 0.531,0 0.955,-0.004 1.364,-0.011 C -26.593,3.652 -27.456,0 -28.949,0 m -4.098,1.914 c 0,-3.025 1.092,-4.464 2.55,-4.464 1.786,0 3.212,1.581 4.555,4.951 v -4.769 h 2.915 V 7.651 c -1.312,0.11 -2.514,0.184 -3.827,0.184 -3.607,0 -6.193,-1.495 -6.193,-5.921 M 61.94,6.559 c 0,2.495 -1.731,4.008 -4.828,4.008 -1.712,0 -2.968,-0.364 -3.734,-0.73 -0.437,-0.618 -0.637,-1.33 -0.911,-2.457 1.166,0.455 2.295,0.818 4.008,0.818 1.366,0 2.46,-0.583 2.46,-2.186 0,-1.729 -1.075,-2.987 -6.924,-6.375 0,-0.365 0.019,-1.093 0.183,-2.005 h 9.654 c 0.275,0.82 0.456,1.548 0.547,2.368 h -8.217 c 4.105,1.404 7.762,2.87 7.762,6.559 M -39.912,0.43 l -0.15,0.081 c -1.748,0.928 -4.099,2.348 -4.099,4.936 0,2.37 1.532,3.481 3.371,3.481 2.041,0 3.279,-1.439 3.279,-3.955 0,-1.732 -0.954,-3.26 -2.401,-4.543 m 5.589,-2.98 -4.799,2.559 c 2.716,0.987 4.708,2.934 4.708,5.694 0,3.717 -2.788,5.592 -6.376,5.592 -3.297,0 -6.467,-2.113 -6.467,-6.194 0,-3.443 2.623,-5.501 5.501,-7.013 l 9.254,-4.828 c 0,2.131 -0.254,3.353 -1.821,4.19 m 68.207,1.094 c -0.818,0 -3.37,1.658 -3.37,6.101 0,2.188 1.276,3.553 3.37,3.553 2.095,0 3.372,-1.365 3.372,-3.553 0,-4.443 -2.551,-6.101 -3.372,-6.101 m 0,12.023 c -3.642,0 -6.376,-2.186 -6.376,-5.739 0,-4.645 4.464,-7.378 6.376,-7.378 1.914,0 6.376,2.733 6.376,7.378 0,3.553 -2.731,5.739 -6.376,5.739 M 33.925,5.6 C 33.288,5.146 32.741,4.615 32.259,4.008 32.741,3.401 33.288,2.872 33.925,2.416 34.562,2.872 35.107,3.401 35.593,4.008 35.107,4.615 34.562,5.146 33.925,5.6 m 16.721,0.959 c 0,2.495 -1.732,4.008 -4.83,4.008 -1.711,0 -2.968,-0.364 -3.734,-0.73 -0.436,-0.618 -0.637,-1.33 -0.911,-2.457 1.167,0.455 2.297,0.818 4.009,0.818 1.366,0 2.46,-0.583 2.46,-2.186 0,-1.729 -1.075,-2.987 -6.923,-6.375 0,-0.365 0.018,-1.093 0.182,-2.005 h 9.656 c 0.272,0.82 0.455,1.548 0.546,2.368 h -8.218 c 4.106,1.404 7.763,2.87 7.763,6.559 m -24.596,0 c 0,2.495 -1.729,4.008 -4.826,4.008 -1.713,0 -2.97,-0.364 -3.734,-0.73 -0.438,-0.618 -0.639,-1.33 -0.911,-2.457 1.165,0.455 2.295,0.818 4.008,0.818 1.365,0 2.458,-0.583 2.458,-2.186 0,-1.729 -1.075,-2.987 -6.922,-6.375 0,-0.365 0.018,-1.093 0.183,-2.005 h 9.655 c 0.274,0.82 0.455,1.548 0.545,2.368 h -8.217 c 4.104,1.404 7.761,2.87 7.761,6.559"/>
    </g>
    <g transform="translate(199.5872,750.6183)" id="g24">
      <path id="path26" style="fill:#9A1032;fill-opacity:1;fill-rule:nonzero;stroke:none" d="m 0,0 c -0.413,-0.104 -0.867,-0.202 -1.36,-0.295 -0.497,-0.093 -1.11,-0.138 -1.843,-0.138 -0.722,0 -1.453,0.097 -2.191,0.293 -0.738,0.195 -1.403,0.51 -1.995,0.944 -0.593,0.433 -1.079,1.004 -1.455,1.71 -0.379,0.706 -0.566,1.572 -0.566,2.593 0,0.938 0.156,1.762 0.465,2.468 0.309,0.707 0.741,1.294 1.292,1.766 0.552,0.469 1.208,0.819 1.966,1.051 0.758,0.233 1.581,0.348 2.468,0.348 0.558,0 1.099,-0.053 1.625,-0.162 0.527,-0.107 1.053,-0.239 1.578,-0.394 l -0.23,-2.338 c -0.465,0.259 -0.927,0.45 -1.385,0.573 -0.461,0.124 -0.938,0.186 -1.432,0.186 -0.517,0 -0.98,-0.087 -1.393,-0.264 C -4.869,8.167 -5.222,7.924 -5.517,7.615 -5.812,7.304 -6.039,6.935 -6.199,6.507 -6.359,6.08 -6.437,5.613 -6.437,5.107 c 0,-0.526 0.089,-1.001 0.271,-1.425 0.179,-0.422 0.427,-0.78 0.742,-1.075 0.315,-0.293 0.694,-0.518 1.137,-0.673 0.444,-0.154 0.928,-0.232 1.456,-0.232 0.474,0 0.944,0.054 1.408,0.163 0.465,0.107 0.892,0.239 1.284,0.394 z"/>
    </g>
    <g transform="translate(209.9575,754.4721)" id="g28">
      <path id="path30" style="fill:#9A1032;fill-opacity:1;fill-rule:nonzero;stroke:none" d="m 0,0 c 0,-0.744 -0.114,-1.382 -0.341,-1.92 -0.227,-0.536 -0.548,-0.98 -0.966,-1.33 -0.419,-0.352 -0.919,-0.612 -1.502,-0.782 -0.583,-0.172 -1.226,-0.255 -1.928,-0.255 -0.701,0 -1.343,0.083 -1.927,0.255 -0.582,0.17 -1.082,0.43 -1.501,0.782 -0.418,0.35 -0.739,0.794 -0.966,1.33 -0.227,0.538 -0.341,1.176 -0.341,1.92 v 6.702 h 2.879 V 0.479 c 0,-0.361 0.028,-0.698 0.085,-1.013 0.056,-0.316 0.156,-0.593 0.294,-0.836 0.139,-0.242 0.328,-0.433 0.565,-0.572 0.236,-0.14 0.542,-0.21 0.912,-0.21 0.372,0 0.677,0.07 0.915,0.21 0.238,0.139 0.425,0.33 0.565,0.572 0.138,0.243 0.237,0.52 0.294,0.836 0.055,0.315 0.085,0.652 0.085,1.013 V 6.702 H 0 Z"/>
    </g>
    <g transform="translate(214.2768,756.1899)" id="g32">
      <path id="path34" style="fill:#9A1032;fill-opacity:1;fill-rule:nonzero;stroke:none" d="m 0,0 h 0.742 c 0.248,0 0.48,0.024 0.697,0.069 0.216,0.048 0.405,0.13 0.564,0.248 0.16,0.118 0.287,0.274 0.38,0.465 0.092,0.19 0.139,0.425 0.139,0.703 0,0.28 -0.047,0.512 -0.139,0.696 C 2.29,2.367 2.163,2.517 2.003,2.631 1.844,2.744 1.655,2.825 1.439,2.87 1.222,2.918 0.99,2.941 0.742,2.941 H 0 Z m -2.88,4.984 h 3.436 c 1.662,0 2.885,-0.287 3.67,-0.859 C 5.009,3.551 5.402,2.657 5.402,1.439 5.402,0.345 5.025,-0.509 4.272,-1.122 3.517,-1.737 2.465,-2.043 1.113,-2.043 H 0 v -3.776 h -2.88 z"/>
    </g>
    <g transform="translate(130.1413,761.1741)" id="g36">
      <path id="path38" style="fill:#9A1032;fill-opacity:1;fill-rule:nonzero;stroke:none" d="M 0,0 H 2.941 L 4.335,-8.297 H 4.366 L 5.819,0 h 3.653 l 1.517,-8.297 h 0.032 L 12.429,0 h 2.802 L 12.815,-10.804 H 9.117 L 7.585,-2.508 H 7.553 L 6.13,-10.804 H 2.399 Z"/>
    </g>
    <g transform="translate(148.4519,755.772)" id="g40">
      <path id="path42" style="fill:#9A1032;fill-opacity:1;fill-rule:nonzero;stroke:none" d="m 0,0 c 0,-0.445 0.046,-0.875 0.14,-1.293 0.092,-0.417 0.235,-0.786 0.432,-1.106 0.196,-0.32 0.449,-0.575 0.76,-0.766 0.309,-0.191 0.679,-0.287 1.114,-0.287 0.432,0 0.806,0.096 1.115,0.287 0.309,0.191 0.561,0.446 0.756,0.766 0.197,0.32 0.342,0.689 0.435,1.106 C 4.844,-0.875 4.891,-0.445 4.891,0 4.891,0.463 4.844,0.905 4.752,1.322 4.659,1.74 4.514,2.107 4.317,2.423 4.122,2.736 3.87,2.987 3.561,3.173 3.252,3.359 2.878,3.45 2.446,3.45 2.011,3.45 1.641,3.359 1.332,3.173 1.021,2.987 0.768,2.736 0.572,2.423 0.375,2.107 0.232,1.74 0.14,1.322 0.046,0.905 0,0.463 0,0 m -2.973,0 c 0,0.867 0.117,1.646 0.349,2.337 0.231,0.691 0.575,1.277 1.029,1.756 0.454,0.48 1.02,0.85 1.694,1.107 C 0.775,5.458 1.557,5.588 2.446,5.588 3.332,5.588 4.114,5.458 4.79,5.2 5.466,4.943 6.031,4.573 6.485,4.093 6.939,3.614 7.282,3.028 7.515,2.337 7.747,1.646 7.862,0.867 7.862,0 7.862,-0.856 7.747,-1.63 7.515,-2.322 7.282,-3.014 6.935,-3.602 6.477,-4.086 6.018,-4.571 5.451,-4.943 4.774,-5.2 4.1,-5.459 3.321,-5.588 2.446,-5.588 c -0.889,0 -1.667,0.129 -2.339,0.388 -0.668,0.257 -1.234,0.629 -1.694,1.114 -0.459,0.484 -0.806,1.072 -1.037,1.764 C -2.856,-1.63 -2.973,-0.856 -2.973,0"/>
    </g>
    <g transform="translate(160.2769,756.6848)" id="g44">
      <path id="path46" style="fill:#9A1032;fill-opacity:1;fill-rule:nonzero;stroke:none" d="m 0,0 h 0.757 c 0.228,0 0.468,0.008 0.72,0.024 0.254,0.015 0.481,0.064 0.682,0.146 0.201,0.084 0.369,0.207 0.502,0.372 0.135,0.166 0.201,0.402 0.201,0.713 0,0.247 -0.058,0.45 -0.178,0.61 C 2.566,2.025 2.412,2.147 2.221,2.229 2.03,2.311 1.808,2.367 1.554,2.399 1.302,2.431 1.037,2.446 0.757,2.446 H 0 Z M -2.878,4.489 H 2.26 C 2.733,4.489 3.184,4.434 3.606,4.327 4.029,4.218 4.401,4.049 4.721,3.822 5.039,3.595 5.29,3.313 5.471,2.973 5.652,2.631 5.742,2.229 5.742,1.765 5.742,1.043 5.572,0.449 5.23,-0.016 4.891,-0.479 4.369,-0.794 3.668,-0.96 v -0.03 c 0.227,-0.061 0.41,-0.159 0.55,-0.295 0.139,-0.134 0.26,-0.301 0.363,-0.502 0.104,-0.202 0.198,-0.434 0.286,-0.697 0.089,-0.263 0.199,-0.56 0.335,-0.891 L 6.253,-6.314 H 3.252 L 2.631,-4.365 C 2.486,-3.9 2.349,-3.518 2.221,-3.219 2.092,-2.921 1.951,-2.683 1.803,-2.508 1.653,-2.331 1.483,-2.211 1.291,-2.144 1.1,-2.076 0.872,-2.043 0.604,-2.043 H 0 v -4.271 h -2.878 z"/>
    </g>
    <g transform="translate(167.7686,761.1741)" id="g48">
      <path id="path50" style="fill:#9A1032;fill-opacity:1;fill-rule:nonzero;stroke:none" d="m 0,0 h 2.878 v -8.668 h 4.458 v -2.136 H 0 Z"/>
    </g>
    <g transform="translate(178.9899,752.5064)" id="g52">
      <path id="path54" style="fill:#9A1032;fill-opacity:1;fill-rule:nonzero;stroke:none" d="m 0,0 h 1.114 c 1.083,0 1.914,0.273 2.491,0.821 0.578,0.546 0.868,1.36 0.868,2.445 0,1.083 -0.296,1.898 -0.884,2.445 C 3.001,6.258 2.177,6.532 1.114,6.532 H 0 Z M -2.88,8.668 H 1.051 C 1.991,8.668 2.853,8.584 3.636,8.42 4.421,8.255 5.093,7.968 5.657,7.56 6.218,7.153 6.658,6.603 6.972,5.912 7.287,5.222 7.445,4.354 7.445,3.312 7.445,2.3 7.284,1.449 6.964,0.758 6.644,0.066 6.201,-0.493 5.633,-0.921 5.066,-1.349 4.39,-1.658 3.605,-1.849 2.821,-2.04 1.97,-2.136 1.051,-2.136 H -2.88 Z"/>
    </g>
    <g transform="translate(95.2956,761.1741)" id="g56">
      <path id="path58" style="fill:#9A1032;fill-opacity:1;fill-rule:evenodd;stroke:none" d="m 0,0 v -10.804 h 3.362 v 3.902 h 2.421 l 0.861,2.361 H 3.362 v 2.188 H 7.438 L 8.296,0 Z"/>
    </g>
    <path id="path60" style="fill:#9A1032;fill-opacity:1;fill-rule:evenodd;stroke:none" d="m 104.621,750.371 h 3.362 v 10.804 h -3.362 z"/>
    <g transform="translate(110.2968,761.1741)" id="g62">
      <path id="path64" style="fill:#9A1032;fill-opacity:1;fill-rule:evenodd;stroke:none" d="m 0,0 v -10.804 h 3.364 v 3.902 h 2.419 l 0.861,2.361 h -3.28 v 2.188 H 7.438 L 8.297,0 Z"/>
    </g>
    <g transform="translate(123.8303,753.8979)" id="g66">
      <path id="path68" style="fill:#9A1032;fill-opacity:1;fill-rule:evenodd;stroke:none" d="M 0,0 -1.345,4.5 -2.643,0 Z M 4.391,-3.528 H 0.995 l -0.439,1.452 h -3.8 l -0.421,-1.452 h -3.31 l 3.936,10.804 h 3.496 z"/>
    </g>
  </g>
</svg>